<svg width="151" height="39" viewBox="0 0 151 39" fill="none" xmlns="http://www.w3.org/2000/svg">
<path d="M10.3176 31.6238C12.2432 33.5489 17.3688 38.7739 17.3664 38.7793C17.3477 38.8133 22.4583 33.682 24.4938 31.6477L17.3935 24.5479L10.3176 31.6238Z" fill="#3A1888"/>
<path d="M17.3932 24.5479L24.4935 31.6478C24.5041 31.636 24.5171 31.6226 24.5285 31.612L31.6218 24.5183L24.5223 17.4186L17.3932 24.5479Z" fill="#03A1C4"/>
<path d="M31.6221 24.5183L31.6403 24.5C35.5641 20.5766 35.5673 14.2178 31.6521 10.2895L24.5226 17.4186L31.6221 24.5183Z" fill="#05D0DF"/>
<path d="M10.264 17.4186L3.18933 24.4931C3.19136 24.4955 3.19256 24.4979 3.19503 24.5L10.3059 31.612C10.3099 31.6157 10.314 31.6194 10.3176 31.6238L17.3935 24.5478L10.264 17.4186Z" fill="#761FE8"/>
<path d="M17.3932 10.2891L24.5223 17.4187L31.6518 10.2895C31.6461 10.2855 31.6441 10.2814 31.64 10.2774L24.5285 3.16617C24.5268 3.16415 24.5244 3.16212 24.5223 3.1601L17.3932 10.2891Z" fill="#FFAA01"/>
<path d="M3.15929 10.3138C-0.729613 14.2421 -0.719863 20.5775 3.18929 24.4931L10.264 17.4187L3.15929 10.3138Z" fill="#F1175D"/>
<path d="M17.3935 10.289L10.2884 3.18399L3.195 10.2773C3.18278 10.2895 3.17183 10.3025 3.1593 10.3138L10.264 17.4186L17.3935 10.289Z" fill="#FB3A1B"/>
<path d="M24.5226 3.16001C20.594 -0.761291 14.2317 -0.759191 10.3059 3.16609L10.2884 3.18394L17.3935 10.289L24.5226 3.16001Z" fill="#FBC935"/>
<path d="M53.93 26.2964V19.0308C53.93 17.242 52.9941 15.6189 51.1492 15.6189C49.3324 15.6189 48.2605 17.2421 48.2605 19.0308V26.2964H44.9034V12.7013H48.0129L48.2605 14.3528C48.9761 12.9764 50.5448 12.4817 51.8368 12.4817C53.462 12.4817 55.0848 13.1425 55.8559 15.0132C57.0667 13.0868 58.6359 12.5366 60.3962 12.5366C64.2497 12.5366 66.1481 14.9029 66.1481 18.976V26.2964H62.7906V18.976C62.7906 17.188 62.0478 15.6732 60.2326 15.6732C58.4151 15.6732 57.2867 17.242 57.2867 19.0308V26.2964H53.93Z" fill="#333359"/>
<path d="M80.321 12.7298H83.5413V26.2965H80.3757L80.2101 24.3158C79.4402 25.911 77.3214 26.6809 75.8075 26.7093C71.7908 26.7369 68.8176 24.2602 68.8176 19.4991C68.8176 14.8209 71.9284 12.3719 75.8911 12.3994C77.707 12.3994 79.4402 13.2522 80.2101 14.601L80.321 12.7298ZM72.1752 19.4991C72.1752 22.085 73.964 23.627 76.1932 23.627C81.4767 23.627 81.4767 15.3985 76.1932 15.3985C73.964 15.3985 72.1752 16.9125 72.1752 19.4991Z" fill="#333359"/>
<path d="M86.376 31.9663V12.7297H89.5139L89.7331 14.6009C90.7795 13.0869 92.5963 12.4266 94.1371 12.4266C98.3185 12.4266 101.1 15.5369 101.1 19.5266C101.1 23.4901 98.5946 26.6272 94.2466 26.6272C92.8168 26.6272 90.6967 26.1856 89.7331 24.7001V31.9664H86.376V31.9663ZM97.7422 19.5266C97.7422 17.4076 96.311 15.6733 93.8894 15.6733C91.4671 15.6733 90.0359 17.4076 90.0359 19.5266C90.0359 21.6449 91.6051 23.3801 93.8894 23.3801C96.1746 23.3801 97.7422 21.6449 97.7422 19.5266Z" fill="#333359"/>
<path d="M107.099 8.60144V12.7013H111.722V13.8298H107.099V22.1138C107.099 23.9569 107.485 25.2505 109.603 25.2505C110.264 25.2505 111.006 25.0301 111.694 24.7001L112.162 25.8C111.309 26.2141 110.455 26.4889 109.603 26.4889C106.714 26.4889 105.778 24.7825 105.778 22.1138V13.8298H102.888V12.7013H105.778V8.73899L107.099 8.60144Z" fill="#333359"/>
<path d="M116.621 8.27065C116.621 9.7018 114.447 9.7018 114.447 8.27065C114.447 6.84025 116.621 6.84025 116.621 8.27065ZM114.833 12.6462V26.2965H116.18V12.6462H114.833Z" fill="#333359"/>
<path d="M121.382 7.03348V26.2965H120.033V7.03348H121.382Z" fill="#333359"/>
<path d="M142.764 12.7013L142.819 15.1241C143.672 13.2789 145.599 12.5641 147.333 12.5641C148.352 12.5366 149.341 12.8122 150.25 13.3626L149.644 14.4629C148.93 14.0226 148.13 13.8298 147.333 13.8298C144.8 13.8583 142.847 15.8941 142.847 18.3713V26.2966H141.498V12.7013H142.764Z" fill="#333359"/>
<path d="M131.278 25.4785C128.882 25.4785 126.83 23.9774 125.971 21.8461L125.963 21.8464L125.97 21.8446C125.969 21.8434 125.969 21.8423 125.968 21.8411L136.975 18.9198C136.975 18.924 136.975 18.9281 136.976 18.9322L138.147 18.6222C137.674 15.1784 134.779 12.5283 131.278 12.5283C127.446 12.5283 124.34 15.7015 124.34 19.6158C124.34 23.53 127.446 26.7034 131.278 26.7034C134.144 26.7034 136.604 24.9277 137.662 22.3947L136.558 21.9149C135.683 24.0097 133.648 25.4785 131.278 25.4785ZM125.539 19.6159C125.539 16.3779 128.109 13.7532 131.278 13.7532C133.756 13.7532 135.867 15.3579 136.67 17.6053L125.611 20.5406C125.564 20.2393 125.539 19.9307 125.539 19.6159Z" fill="#333359"/>
</svg>
